<?xml version="1.0" encoding="UTF-8" standalone="no"?>
<!DOCTYPE svg PUBLIC "-//W3C//DTD SVG 1.1//EN" "http://www.w3.org/Graphics/SVG/1.1/DTD/svg11.dtd">
<svg width="100%" height="100%" viewBox="0 0 237 211" version="1.1" xmlns="http://www.w3.org/2000/svg" xmlns:xlink="http://www.w3.org/1999/xlink" xml:space="preserve" xmlns:serif="http://www.serif.com/" style="fill-rule:evenodd;clip-rule:evenodd;stroke-linejoin:round;stroke-miterlimit:2;">
    <g transform="matrix(1,0,0,1,-137.549,-121.674)">
        <path d="M300.556,240.82C295.027,260.022 277.314,274.086 256.342,274.086C235.37,274.086 217.658,260.022 212.128,240.82L300.556,240.82Z" style="fill:rgb(37,194,160);"/>
        <path d="M212.137,215.317C217.676,196.13 235.381,182.081 256.342,182.081C277.303,182.081 295.008,196.13 300.547,215.317L212.137,215.317Z" style="fill:rgb(37,194,160);"/>
        <g transform="matrix(5.55112e-17,-0.919664,1.19975,1.11022e-16,-34.9482,441.976)">
            <path d="M203.419,154.862C213.392,150.905 223.329,147.209 233.187,143.777C243.04,147.214 252.973,150.915 262.94,154.876C271.877,158.427 280.842,162.188 289.804,166.154C299.428,170.413 308.786,174.794 317.854,179.272C327.319,183.945 336.467,188.725 345.271,193.583C346.314,201.856 347.096,210.314 347.602,218.926C348.051,226.576 348.281,234.347 348.281,242.217C348.281,250.4 348.032,258.477 347.547,266.421C347.021,275.035 346.218,283.493 345.155,291.765C336.34,296.605 327.185,301.366 317.715,306.02C309.015,310.297 300.049,314.484 290.839,318.56C281.567,322.663 272.29,326.547 263.046,330.207C253.041,334.167 243.074,337.865 233.188,341.296C223.298,337.87 213.325,334.177 203.316,330.221C193.939,326.515 184.529,322.579 175.122,318.416C166.378,314.546 157.853,310.576 149.566,306.524C140.098,301.894 130.94,297.157 122.119,292.34C121.043,284.075 120.228,275.623 119.689,267.014C119.18,258.879 118.918,250.604 118.918,242.217C118.918,234.142 119.161,226.172 119.633,218.33C120.151,209.724 120.946,201.271 122.001,193.005C130.812,188.17 139.963,183.415 149.426,178.766C158.082,174.514 166.999,170.351 176.158,166.297C185.253,162.272 194.351,158.459 203.419,154.862ZM321.004,204.258C307.132,197.012 292.433,189.924 277.034,183.109C262.319,176.597 247.644,170.634 233.174,165.243C218.579,170.671 203.773,176.682 188.928,183.252C174.004,189.857 159.738,196.718 146.245,203.731C145.073,216.168 144.458,229.038 144.458,242.217C144.458,255.699 145.102,268.859 146.327,281.562C159.489,288.374 173.38,295.038 187.892,301.461C203.089,308.187 218.244,314.327 233.175,319.855C247.979,314.364 263.004,308.272 278.069,301.605C293.056,294.972 307.379,288.081 320.923,281.037C322.115,268.497 322.741,255.513 322.741,242.217C322.741,229.224 322.143,216.531 321.004,204.258Z" style="fill:rgb(37,194,160);"/>
        </g>
    </g>
</svg>
